<svg width="122" height="51" viewBox="0 0 122 51" fill="none" xmlns="http://www.w3.org/2000/svg">
<path fill-rule="evenodd" clip-rule="evenodd" d="M57.4976 14.5269C57.9727 13.8232 58.6237 13.2513 59.4506 12.8114C60.2953 12.3715 61.2543 12.1516 62.3276 12.1516C63.5769 12.1516 64.703 12.4595 65.7058 13.0754C66.7265 13.6912 67.527 14.5709 68.1077 15.7147C68.706 16.8408 69.0052 18.1516 69.0052 19.6473C69.0052 21.1428 68.706 22.4713 68.1077 23.6325C67.527 24.7764 66.7265 25.6648 65.7058 26.2982C64.703 26.9319 63.5769 27.2486 62.3276 27.2486C61.2367 27.2486 60.2778 27.0373 59.4506 26.6152C58.6413 26.1753 57.9903 25.6121 57.4976 24.926V27.011H53.8025V7.47998H57.4976V14.5269ZM65.2307 19.6473C65.2307 18.7674 65.046 18.0108 64.6766 17.3774C64.3248 16.7264 63.8497 16.2337 63.2514 15.8994C62.6707 15.5652 62.0373 15.398 61.3511 15.398C60.6823 15.398 60.0489 15.5739 59.4506 15.9258C58.8701 16.2601 58.3951 16.7527 58.0254 17.4039C57.6736 18.0549 57.4976 18.8204 57.4976 19.7C57.4976 20.5799 57.6736 21.3453 58.0254 21.9963C58.3951 22.6473 58.8701 23.1487 59.4506 23.5008C60.0489 23.8351 60.6823 24.0022 61.3511 24.0022C62.0373 24.0022 62.6707 23.8263 63.2514 23.4742C63.8497 23.1223 64.3248 22.6209 64.6766 21.9699C65.046 21.3189 65.2307 20.5447 65.2307 19.6473ZM16.9293 8.58847V11.5709H12.0202V27.011H8.32515V11.5709H3.41602V8.58847H16.9293ZM33.2179 19.3833C33.2179 19.9113 33.1828 20.3864 33.1123 20.8085H22.4231C22.511 21.8643 22.8806 22.6912 23.5316 23.2895C24.1826 23.8878 24.9832 24.1869 25.9333 24.1869C27.3058 24.1869 28.2823 23.5974 28.863 22.4186H32.8485C32.4262 23.8263 31.6168 24.9875 30.4202 25.9025C29.2237 26.7999 27.7545 27.2486 26.0126 27.2486C24.605 27.2486 23.338 26.9407 22.2119 26.3248C21.1034 25.6914 20.2324 24.8028 19.599 23.6591C18.9831 22.5153 18.6752 21.1957 18.6752 19.7C18.6752 18.1869 18.9831 16.8584 19.599 15.7147C20.2148 14.5709 21.077 13.6912 22.1855 13.0754C23.294 12.4595 24.5698 12.1516 26.0126 12.1516C27.4027 12.1516 28.6432 12.4507 29.7341 13.049C30.8426 13.6471 31.6959 14.5006 32.2941 15.6091C32.91 16.7 33.2179 17.9581 33.2179 19.3833ZM29.3908 18.3275C29.3732 17.3774 29.0302 16.621 28.3616 16.0578C27.6928 15.4771 26.8747 15.1867 25.907 15.1867C24.992 15.1867 24.2178 15.4683 23.5844 16.0314C22.9685 16.5768 22.5902 17.3422 22.4495 18.3275H29.3908ZM35.8358 15.7147C35.2551 16.8584 34.9647 18.1691 34.9647 19.6473C34.9647 21.1428 35.2551 22.4713 35.8358 23.6325C36.4341 24.7764 37.2347 25.6648 38.2375 26.2982C39.2582 26.9319 40.3842 27.2486 41.6159 27.2486C42.7068 27.2486 43.6658 27.0285 44.4927 26.5886C45.3374 26.1311 45.9972 25.5594 46.4723 24.873V27.011H50.1937V12.389H46.4723V14.4742C45.9796 13.8057 45.3198 13.2513 44.4927 12.8114C43.6833 12.3715 42.7332 12.1516 41.6423 12.1516C40.393 12.1516 39.2582 12.4595 38.2375 13.0754C37.2347 13.6912 36.4341 14.5709 35.8358 15.7147ZM45.9445 17.4039C46.2963 18.0374 46.4723 18.8028 46.4723 19.7C46.4723 20.5974 46.2963 21.3716 45.9445 22.0226C45.5924 22.656 45.1173 23.1487 44.519 23.5008C43.921 23.8351 43.2788 24.0022 42.5924 24.0022C41.9239 24.0022 41.2904 23.8263 40.6921 23.4742C40.1114 23.1223 39.6364 22.6209 39.2669 21.9699C38.9151 21.3014 38.7389 20.5271 38.7389 19.6473C38.7389 18.7674 38.9151 18.0108 39.2669 17.3774C39.6364 16.7264 40.1114 16.2337 40.6921 15.8994C41.2729 15.5652 41.9063 15.398 42.5924 15.398C43.2788 15.398 43.921 15.5739 44.519 15.9258C45.1173 16.2601 45.5924 16.7527 45.9445 17.4039ZM71.6111 15.7147C71.0304 16.8584 70.74 18.1691 70.74 19.6473C70.74 21.1428 71.0304 22.4713 71.6111 23.6325C72.2091 24.7764 73.0099 25.6648 74.0128 26.2982C75.0334 26.9319 76.1595 27.2486 77.3912 27.2486C78.4821 27.2486 79.4411 27.0285 80.268 26.5886C81.1125 26.1311 81.7725 25.5594 82.2475 24.873V27.011H85.969V12.389H82.2475V14.4742C81.7549 13.8057 81.0949 13.2513 80.268 12.8114C79.4586 12.3715 78.5085 12.1516 77.4176 12.1516C76.1683 12.1516 75.0334 12.4595 74.0128 13.0754C73.0099 13.6912 72.2091 14.5709 71.6111 15.7147ZM81.7195 17.4039C82.0716 18.0374 82.2475 18.8028 82.2475 19.7C82.2475 20.5974 82.0716 21.3716 81.7195 22.0226C81.3677 22.656 80.8926 23.1487 80.2943 23.5008C79.696 23.8351 79.0538 24.0022 78.3677 24.0022C77.6991 24.0022 77.0657 23.8263 76.4674 23.4742C75.8867 23.1223 75.4116 22.6209 75.0422 21.9699C74.6901 21.3014 74.5142 20.5271 74.5142 19.6473C74.5142 18.7674 74.6901 18.0108 75.0422 17.3774C75.4116 16.7264 75.8867 16.2337 76.4674 15.8994C77.0479 15.5652 77.6813 15.398 78.3677 15.398C79.0538 15.398 79.696 15.5739 80.2943 15.9258C80.8926 16.2601 81.3677 16.7527 81.7195 17.4039ZM95.3052 12.1516C96.3961 12.1516 97.355 12.3715 98.182 12.8114C99.0089 13.2337 99.6601 13.7879 100.135 14.4742V12.389H103.856V27.1166C103.856 28.4713 103.584 29.6767 103.038 30.7324C102.493 31.8058 101.675 32.6503 100.584 33.2661C99.493 33.8996 98.1732 34.2163 96.6247 34.2163C94.7738 34.2163 93.2166 33.8317 91.9529 33.0626C91.7635 33.5858 91.7213 34.3241 91.9404 35.3567C92.1788 36.4811 92.4767 37.3244 92.7459 38.0207C92.8003 38.1613 92.854 38.2967 92.9057 38.4277C93.1085 38.9411 93.2851 39.3881 93.3835 39.8227C93.5089 40.3783 93.5084 40.9192 93.2895 41.5761C93.1453 42.0087 92.9067 42.4898 92.5504 43.0574C93.0167 43.4087 93.3181 43.9668 93.3181 44.5956C93.3181 45.6584 92.4562 46.52 91.3934 46.52C90.3305 46.52 89.469 45.6584 89.469 44.5956C89.469 43.5327 90.3305 42.6709 91.3934 42.6709C91.7291 42.6709 92.0449 42.757 92.3196 42.908C92.6666 42.3547 92.8933 41.895 93.0287 41.4892C93.2307 40.8831 93.2302 40.3931 93.115 39.8832C93.0221 39.4713 92.8557 39.0499 92.6541 38.5397C92.6014 38.4063 92.5463 38.2667 92.4894 38.1198C92.2174 37.4156 91.9141 36.5577 91.6713 35.4138C91.4383 34.3151 91.4861 33.5011 91.7157 32.9114C91.6442 32.8638 91.5739 32.815 91.5044 32.7647C90.1849 31.797 89.437 30.4772 89.2611 28.8058H92.9296C93.1234 29.4744 93.5367 30.0022 94.1701 30.3894C94.8213 30.7939 95.6043 30.9965 96.5191 30.9965C97.5925 30.9965 98.4635 30.671 99.1321 30.0197C99.8007 29.3863 100.135 28.4186 100.135 27.1166V24.8467C99.6601 25.5331 99.0001 26.1047 98.1556 26.5622C97.3287 27.0197 96.3786 27.2486 95.3052 27.2486C94.0735 27.2486 92.9474 26.9319 91.9268 26.2982C90.9061 25.6648 90.0968 24.7764 89.4985 23.6325C88.918 22.4713 88.6276 21.1428 88.6276 19.6473C88.6276 18.1691 88.918 16.8584 89.4985 15.7147C90.0968 14.5709 90.8973 13.6912 91.9004 13.0754C92.9208 12.4595 94.0559 12.1516 95.3052 12.1516ZM92.8857 32.7845C92.6349 32.7845 92.4013 32.7098 92.2064 32.5815C92.3113 32.4387 92.4314 32.3224 92.5604 32.2282C92.9982 31.9085 93.5674 31.8214 94.0842 31.8551C93.9476 32.3895 93.4627 32.7845 92.8857 32.7845ZM94.123 31.5474C94.123 31.5591 94.1228 31.5708 94.1225 31.5823C93.5547 31.542 92.9089 31.6335 92.3984 32.0061C92.2481 32.1157 92.112 32.2479 91.9941 32.4051C91.7801 32.1825 91.6486 31.8802 91.6486 31.5474C91.6486 30.864 92.2025 30.3101 92.8857 30.3101C93.5691 30.3101 94.123 30.864 94.123 31.5474ZM100.135 19.7C100.135 18.8028 99.959 18.0374 99.6072 17.4039C99.2553 16.7527 98.7802 16.2601 98.182 15.9258C97.5837 15.5739 96.9415 15.398 96.2553 15.398C95.569 15.398 94.9355 15.5652 94.3551 15.8994C93.7743 16.2337 93.2993 16.7264 92.9296 17.3774C92.5778 18.0108 92.4018 18.7674 92.4018 19.6473C92.4018 20.5271 92.5778 21.3014 92.9296 21.9699C93.2993 22.6209 93.7743 23.1223 94.3551 23.4742C94.9531 23.8263 95.5865 24.0022 96.2553 24.0022C96.9415 24.0022 97.5837 23.8351 98.182 23.5008C98.7802 23.1487 99.2553 22.656 99.6072 22.0226C99.959 21.3716 100.135 20.5974 100.135 19.7ZM109.841 26.6152C110.791 27.0373 111.864 27.2486 113.061 27.2486C114.222 27.2486 115.234 27.0637 116.096 26.6942C116.976 26.3073 117.644 25.7792 118.102 25.1107C118.577 24.4421 118.815 23.6855 118.815 22.8408C118.797 21.8731 118.533 21.0988 118.023 20.5181C117.53 19.9201 116.941 19.4801 116.254 19.1986C115.568 18.917 114.697 18.6442 113.641 18.3804C112.603 18.1164 111.838 17.8612 111.345 17.615C110.853 17.351 110.606 16.9728 110.606 16.4802C110.606 16.0402 110.782 15.6972 111.134 15.4507C111.504 15.2043 112.023 15.0813 112.691 15.0813C113.413 15.0813 113.985 15.2572 114.407 15.6091C114.847 15.9434 115.093 16.4009 115.146 16.9816H118.683C118.577 15.5034 118.005 14.3335 116.967 13.4712C115.929 12.5915 114.539 12.1516 112.797 12.1516C111.618 12.1516 110.589 12.3451 109.709 12.7323C108.847 13.1193 108.178 13.6471 107.703 14.3159C107.245 14.9844 107.017 15.7235 107.017 16.5329C107.017 17.5181 107.263 18.3011 107.756 18.8819C108.266 19.4626 108.864 19.8935 109.55 20.1751C110.254 20.4566 111.152 20.7294 112.242 20.9934C113.298 21.2748 114.064 21.5388 114.539 21.7852C115.031 22.0138 115.278 22.3657 115.278 22.8408C115.278 23.2807 115.076 23.6413 114.671 23.9229C114.284 24.2045 113.738 24.3453 113.034 24.3453C112.313 24.3453 111.706 24.1606 111.213 23.7909C110.738 23.4215 110.465 22.9552 110.395 22.392H106.674C106.726 23.2895 107.025 24.1076 107.571 24.8467C108.134 25.5858 108.891 26.1753 109.841 26.6152Z" fill="#D45F48"/>
</svg>
