<svg width="567" height="567" viewBox="0 0 567 567" fill="none" xmlns="http://www.w3.org/2000/svg">
<path fill-rule="evenodd" clip-rule="evenodd" d="M267.223 225.531C269.43 222.261 272.456 219.603 276.299 217.558C280.225 215.513 284.682 214.492 289.67 214.492C295.476 214.492 300.71 215.923 305.37 218.785C310.114 221.647 313.835 225.735 316.533 231.051C319.314 236.285 320.704 242.377 320.704 249.328C320.704 256.278 319.314 262.453 316.533 267.85C313.835 273.166 310.114 277.295 305.37 280.239C300.71 283.184 295.476 284.656 289.67 284.656C284.6 284.656 280.143 283.674 276.299 281.712C272.538 279.667 269.512 277.05 267.223 273.861V283.551H250.049V192.78H267.223V225.531ZM303.162 249.328C303.162 245.239 302.304 241.722 300.587 238.778C298.952 235.753 296.744 233.463 293.963 231.91C291.264 230.356 288.321 229.579 285.132 229.579C282.024 229.579 279.08 230.397 276.299 232.032C273.601 233.586 271.393 235.875 269.675 238.902C268.04 241.928 267.223 245.485 267.223 249.573C267.223 253.662 268.04 257.22 269.675 260.245C271.393 263.271 273.601 265.601 276.299 267.237C279.08 268.791 282.024 269.568 285.132 269.568C288.321 269.568 291.264 268.75 293.963 267.114C296.744 265.479 298.952 263.148 300.587 260.123C302.304 257.097 303.162 253.499 303.162 249.328ZM78.6797 197.932V211.793H55.8643V283.551H38.6914V211.793H15.876V197.932H78.6797ZM154.382 248.101C154.382 250.555 154.218 252.763 153.891 254.725H104.212C104.621 259.632 106.338 263.475 109.364 266.255C112.39 269.036 116.11 270.426 120.526 270.426C126.905 270.426 131.443 267.686 134.142 262.208H152.665C150.702 268.75 146.94 274.147 141.379 278.399C135.818 282.57 128.99 284.656 120.895 284.656C114.353 284.656 108.464 283.224 103.231 280.362C98.0788 277.418 94.0309 273.288 91.0871 267.973C88.2248 262.657 86.7938 256.524 86.7938 249.573C86.7938 242.541 88.2248 236.366 91.0871 231.051C93.9492 225.735 97.9562 221.647 103.108 218.785C108.26 215.923 114.189 214.492 120.895 214.492C127.355 214.492 133.12 215.882 138.19 218.662C143.342 221.442 147.308 225.409 150.088 230.56C152.951 235.63 154.382 241.477 154.382 248.101ZM136.595 243.194C136.513 238.778 134.919 235.263 131.812 232.646C128.703 229.947 124.901 228.597 120.404 228.597C116.151 228.597 112.553 229.906 109.609 232.523C106.747 235.058 104.989 238.615 104.335 243.194H136.595ZM166.548 231.051C163.849 236.366 162.5 242.458 162.5 249.328C162.5 256.278 163.849 262.453 166.548 267.85C169.329 273.166 173.05 277.295 177.71 280.239C182.454 283.184 187.687 284.656 193.412 284.656C198.482 284.656 202.938 283.633 206.781 281.588C210.707 279.462 213.774 276.805 215.982 273.615V283.551H233.277V215.595H215.982V225.286C213.692 222.179 210.626 219.603 206.781 217.558C203.02 215.513 198.604 214.492 193.534 214.492C187.728 214.492 182.454 215.923 177.71 218.785C173.05 221.647 169.329 225.735 166.548 231.051ZM213.529 238.902C215.164 241.846 215.982 245.403 215.982 249.573C215.982 253.744 215.164 257.342 213.529 260.368C211.892 263.311 209.685 265.601 206.904 267.237C204.125 268.791 201.14 269.568 197.95 269.568C194.843 269.568 191.899 268.75 189.118 267.114C186.419 265.479 184.211 263.148 182.495 260.123C180.859 257.015 180.041 253.417 180.041 249.328C180.041 245.239 180.859 241.722 182.495 238.778C184.211 235.753 186.419 233.463 189.118 231.91C191.817 230.356 194.761 229.579 197.95 229.579C201.14 229.579 204.125 230.397 206.904 232.032C209.685 233.586 211.892 235.875 213.529 238.902ZM332.815 231.051C330.116 236.366 328.767 242.458 328.767 249.328C328.767 256.278 330.116 262.453 332.815 267.85C335.595 273.166 339.317 277.295 343.977 280.239C348.721 283.184 353.954 284.656 359.679 284.656C364.749 284.656 369.205 283.633 373.049 281.588C376.973 279.462 380.041 276.805 382.249 273.615V283.551H399.544V215.595H382.249V225.286C379.959 222.179 376.892 219.603 373.049 217.558C369.287 215.513 364.871 214.492 359.801 214.492C353.995 214.492 348.721 215.923 343.977 218.785C339.317 221.647 335.595 225.735 332.815 231.051ZM379.795 238.902C381.431 241.846 382.249 245.403 382.249 249.573C382.249 253.744 381.431 257.342 379.795 260.368C378.159 263.311 375.952 265.601 373.171 267.237C370.391 268.791 367.406 269.568 364.217 269.568C361.11 269.568 358.166 268.75 355.385 267.114C352.686 265.479 350.479 263.148 348.762 260.123C347.125 257.015 346.308 253.417 346.308 249.328C346.308 245.239 347.125 241.722 348.762 238.778C350.479 235.753 352.686 233.463 355.385 231.91C358.083 230.356 361.027 229.579 364.217 229.579C367.406 229.579 370.391 230.397 373.171 232.032C375.952 233.586 378.159 235.875 379.795 238.902ZM442.935 214.492C448.005 214.492 452.461 215.513 456.305 217.558C460.148 219.521 463.174 222.096 465.382 225.286V215.595H482.677V284.042C482.677 290.338 481.41 295.94 478.875 300.847C476.34 305.835 472.537 309.76 467.467 312.622C462.398 315.566 456.264 317.038 449.067 317.038C440.465 317.038 433.228 315.251 427.355 311.677C426.475 314.108 426.279 317.539 427.297 322.338C428.405 327.564 429.789 331.483 431.04 334.719C431.293 335.373 431.543 336.002 431.783 336.611C432.725 338.997 433.546 341.074 434.003 343.094C434.586 345.676 434.584 348.19 433.567 351.243C432.897 353.254 431.788 355.49 430.132 358.127C432.299 359.76 433.699 362.354 433.699 365.276C433.699 370.216 429.694 374.22 424.754 374.22C419.815 374.22 415.811 370.216 415.811 365.276C415.811 360.336 419.815 356.331 424.754 356.331C426.315 356.331 427.782 356.731 429.059 357.433C430.672 354.861 431.725 352.725 432.355 350.839C433.293 348.022 433.291 345.745 432.756 343.375C432.324 341.461 431.551 339.503 430.614 337.131C430.369 336.511 430.113 335.862 429.848 335.18C428.584 331.907 427.174 327.92 426.046 322.604C424.963 317.497 425.185 313.714 426.252 310.973C425.92 310.752 425.594 310.526 425.27 310.292C419.138 305.794 415.662 299.661 414.844 291.893H431.894C432.795 295 434.715 297.453 437.659 299.252C440.686 301.133 444.325 302.074 448.576 302.074C453.565 302.074 457.613 300.561 460.72 297.534C463.828 294.591 465.382 290.093 465.382 284.042V273.492C463.174 276.682 460.107 279.339 456.182 281.466C452.339 283.592 447.923 284.656 442.935 284.656C437.21 284.656 431.977 283.184 427.233 280.239C422.49 277.295 418.728 273.166 415.948 267.85C413.25 262.453 411.901 256.278 411.901 249.328C411.901 242.458 413.25 236.366 415.948 231.051C418.728 225.735 422.449 221.647 427.111 218.785C431.853 215.923 437.129 214.492 442.935 214.492ZM431.69 310.384C430.524 310.384 429.439 310.037 428.533 309.44C429.021 308.777 429.578 308.236 430.178 307.798C432.213 306.313 434.858 305.908 437.26 306.064C436.625 308.548 434.372 310.384 431.69 310.384ZM437.44 304.634C437.44 304.689 437.439 304.743 437.438 304.797C434.799 304.609 431.798 305.035 429.425 306.766C428.727 307.275 428.094 307.89 427.546 308.62C426.552 307.586 425.941 306.181 425.941 304.634C425.941 301.458 428.515 298.884 431.69 298.884C434.866 298.884 437.44 301.458 437.44 304.634ZM465.382 249.573C465.382 245.403 464.564 241.846 462.928 238.902C461.293 235.875 459.085 233.586 456.305 232.032C453.524 230.397 450.539 229.579 447.351 229.579C444.161 229.579 441.217 230.356 438.519 231.91C435.82 233.463 433.612 235.753 431.894 238.778C430.259 241.722 429.441 245.239 429.441 249.328C429.441 253.417 430.259 257.015 431.894 260.123C433.612 263.148 435.82 265.479 438.519 267.114C441.298 268.75 444.242 269.568 447.351 269.568C450.539 269.568 453.524 268.791 456.305 267.237C459.085 265.601 461.293 263.311 462.928 260.368C464.564 257.342 465.382 253.744 465.382 249.573ZM510.489 281.712C514.905 283.674 519.894 284.656 525.455 284.656C530.852 284.656 535.554 283.796 539.561 282.079C543.65 280.281 546.757 277.827 548.883 274.719C551.091 271.612 552.196 268.096 552.196 264.17C552.113 259.672 550.887 256.074 548.515 253.375C546.225 250.596 543.487 248.551 540.297 247.243C537.108 245.934 533.059 244.666 528.153 243.44C523.329 242.213 519.771 241.027 517.482 239.883C515.192 238.656 514.047 236.898 514.047 234.609C514.047 232.564 514.864 230.97 516.5 229.824C518.218 228.679 520.63 228.108 523.737 228.108C527.09 228.108 529.748 228.925 531.71 230.56C533.755 232.114 534.9 234.24 535.145 236.939H551.582C551.091 230.069 548.433 224.632 543.609 220.624C538.784 216.536 532.323 214.492 524.228 214.492C518.748 214.492 513.965 215.391 509.876 217.191C505.869 218.989 502.761 221.442 500.553 224.55C498.427 227.657 497.364 231.092 497.364 234.854C497.364 239.433 498.51 243.072 500.799 245.771C503.171 248.47 505.951 250.472 509.14 251.781C512.411 253.09 516.581 254.357 521.651 255.584C526.558 256.892 530.116 258.119 532.323 259.264C534.613 260.327 535.758 261.962 535.758 264.17C535.758 266.214 534.818 267.891 532.937 269.199C531.138 270.508 528.603 271.162 525.332 271.162C521.979 271.162 519.158 270.304 516.868 268.586C514.66 266.869 513.392 264.702 513.066 262.084H495.77C496.015 266.255 497.405 270.058 499.941 273.492C502.557 276.927 506.074 279.667 510.489 281.712Z" fill="#0AB88A"/>
</svg>
