<svg width="345" height="345" viewBox="0 0 345 345" fill="none" xmlns="http://www.w3.org/2000/svg">
<path fill-rule="evenodd" clip-rule="evenodd" d="M162.596 137.228C163.939 135.238 165.78 133.621 168.119 132.377C170.507 131.132 173.219 130.511 176.254 130.511C179.787 130.511 182.971 131.382 185.807 133.123C188.694 134.865 190.958 137.352 192.6 140.587C194.292 143.771 195.138 147.478 195.138 151.708C195.138 155.937 194.292 159.694 192.6 162.977C190.958 166.212 188.694 168.724 185.807 170.516C182.971 172.308 179.787 173.203 176.254 173.203C173.169 173.203 170.458 172.606 168.119 171.412C165.83 170.168 163.989 168.575 162.596 166.635V172.531H152.146V117.3H162.596V137.228ZM184.464 151.708C184.464 149.219 183.942 147.08 182.897 145.289C181.902 143.448 180.559 142.054 178.867 141.109C177.224 140.164 175.433 139.691 173.493 139.691C171.602 139.691 169.81 140.189 168.119 141.184C166.477 142.129 165.134 143.522 164.088 145.364C163.093 147.205 162.596 149.369 162.596 151.857C162.596 154.345 163.093 156.509 164.088 158.35C165.134 160.191 166.477 161.609 168.119 162.605C169.81 163.55 171.602 164.023 173.493 164.023C175.433 164.023 177.224 163.525 178.867 162.53C180.559 161.535 181.902 160.117 182.897 158.276C183.942 156.435 184.464 154.245 184.464 151.708ZM47.874 120.435V128.869H33.9916V172.531H23.5424V128.869H9.66003V120.435H47.874ZM93.936 150.961C93.936 152.454 93.8366 153.798 93.6372 154.991H63.4095C63.6583 157.977 64.7032 160.315 66.5442 162.007C68.3852 163.699 70.6491 164.545 73.336 164.545C77.2172 164.545 79.9786 162.878 81.6208 159.545H92.8913C91.6969 163.525 89.4082 166.809 86.0244 169.396C82.6406 171.934 78.4862 173.203 73.5602 173.203C69.5796 173.203 65.9969 172.332 62.8124 170.591C59.6777 168.8 57.2146 166.287 55.4234 163.053C53.6818 159.818 52.8111 156.086 52.8111 151.857C52.8111 147.578 53.6818 143.821 55.4234 140.587C57.1649 137.352 59.603 134.865 62.7377 133.123C65.8725 131.382 69.4803 130.511 73.5602 130.511C77.4912 130.511 80.9991 131.357 84.0841 133.049C87.2188 134.74 89.6317 137.153 91.3236 140.288C93.0652 143.373 93.936 146.931 93.936 150.961ZM83.1133 147.975C83.0636 145.289 82.0935 143.15 80.2029 141.557C78.3116 139.915 75.998 139.094 73.2615 139.094C70.674 139.094 68.4848 139.89 66.6935 141.482C64.9519 143.025 63.8822 145.189 63.4841 147.975H83.1133ZM101.339 140.587C99.6968 143.821 98.8757 147.528 98.8757 151.708C98.8757 155.937 99.6968 159.694 101.339 162.977C103.031 166.212 105.295 168.724 108.131 170.516C111.017 172.308 114.201 173.203 117.684 173.203C120.769 173.203 123.481 172.581 125.819 171.337C128.208 170.043 130.074 168.426 131.417 166.485V172.531H141.941V131.182H131.417V137.079C130.024 135.188 128.159 133.621 125.819 132.377C123.531 131.132 120.844 130.511 117.759 130.511C114.226 130.511 111.017 131.382 108.131 133.123C105.295 134.865 103.031 137.352 101.339 140.587ZM129.925 145.364C130.92 147.155 131.417 149.319 131.417 151.857C131.417 154.394 130.92 156.584 129.925 158.425C128.929 160.216 127.586 161.609 125.894 162.605C124.203 163.55 122.387 164.023 120.446 164.023C118.555 164.023 116.764 163.525 115.072 162.53C113.43 161.535 112.086 160.117 111.042 158.276C110.047 156.385 109.549 154.196 109.549 151.708C109.549 149.219 110.047 147.08 111.042 145.289C112.086 143.448 113.43 142.054 115.072 141.109C116.714 140.164 118.505 139.691 120.446 139.691C122.387 139.691 124.203 140.189 125.894 141.184C127.586 142.129 128.929 143.522 129.925 145.364ZM202.507 140.587C200.865 143.821 200.043 147.528 200.043 151.708C200.043 155.937 200.865 159.694 202.507 162.977C204.198 166.212 206.463 168.724 209.298 170.516C212.185 172.308 215.369 173.203 218.852 173.203C221.937 173.203 224.649 172.581 226.987 171.337C229.375 170.043 231.242 168.426 232.585 166.485V172.531H243.109V131.182H232.585V137.079C231.192 135.188 229.326 133.621 226.987 132.377C224.699 131.132 222.012 130.511 218.927 130.511C215.394 130.511 212.185 131.382 209.298 133.123C206.463 134.865 204.198 137.352 202.507 140.587ZM231.092 145.364C232.088 147.155 232.585 149.319 232.585 151.857C232.585 154.394 232.088 156.584 231.092 158.425C230.097 160.216 228.754 161.609 227.062 162.605C225.37 163.55 223.554 164.023 221.614 164.023C219.723 164.023 217.932 163.525 216.24 162.53C214.598 161.535 213.254 160.117 212.21 158.276C211.214 156.385 210.716 154.196 210.716 151.708C210.716 149.219 211.214 147.08 212.21 145.289C213.254 143.448 214.598 142.054 216.24 141.109C217.881 140.164 219.673 139.691 221.614 139.691C223.554 139.691 225.37 140.189 227.062 141.184C228.754 142.129 230.097 143.522 231.092 145.364ZM269.511 130.511C272.596 130.511 275.307 131.132 277.646 132.377C279.984 133.571 281.826 135.138 283.169 137.079V131.182H293.692V172.83C293.692 176.661 292.922 180.069 291.379 183.055C289.837 186.09 287.522 188.478 284.437 190.22C281.353 192.011 277.621 192.907 273.242 192.907C268.008 192.907 263.604 191.819 260.031 189.644C259.495 191.124 259.376 193.212 259.995 196.132C260.67 199.311 261.512 201.696 262.273 203.665C262.427 204.063 262.579 204.446 262.725 204.816C263.299 206.268 263.798 207.532 264.076 208.761C264.431 210.332 264.429 211.862 263.811 213.719C263.403 214.943 262.728 216.303 261.72 217.908C263.039 218.902 263.891 220.48 263.891 222.258C263.891 225.264 261.454 227.7 258.449 227.7C255.443 227.7 253.006 225.264 253.006 222.258C253.006 219.252 255.443 216.815 258.449 216.815C259.398 216.815 260.291 217.059 261.068 217.486C262.049 215.921 262.69 214.621 263.073 213.474C263.644 211.76 263.643 210.374 263.317 208.932C263.054 207.767 262.584 206.576 262.014 205.133C261.865 204.755 261.709 204.361 261.548 203.945C260.779 201.954 259.921 199.528 259.234 196.293C258.575 193.186 258.711 190.884 259.36 189.217C259.158 189.082 258.959 188.944 258.762 188.802C255.031 186.065 252.916 182.333 252.419 177.607H262.793C263.341 179.497 264.509 180.99 266.301 182.085C268.142 183.229 270.357 183.802 272.943 183.802C275.979 183.802 278.442 182.881 280.333 181.039C282.223 179.248 283.169 176.512 283.169 172.83V166.411C281.826 168.352 279.959 169.968 277.571 171.262C275.233 172.556 272.546 173.203 269.511 173.203C266.027 173.203 262.843 172.308 259.957 170.516C257.071 168.724 254.782 166.212 253.09 162.977C251.448 159.694 250.627 155.937 250.627 151.708C250.627 147.528 251.448 143.821 253.09 140.587C254.782 137.352 257.046 134.865 259.882 133.123C262.768 131.382 265.978 130.511 269.511 130.511ZM262.669 188.858C261.959 188.858 261.299 188.647 260.748 188.284C261.044 187.88 261.384 187.551 261.749 187.285C262.987 186.381 264.596 186.134 266.058 186.23C265.671 187.741 264.3 188.858 262.669 188.858ZM266.168 185.36C266.168 185.393 266.167 185.426 266.166 185.458C264.561 185.344 262.734 185.603 261.291 186.657C260.866 186.967 260.481 187.341 260.147 187.785C259.542 187.156 259.17 186.301 259.17 185.36C259.17 183.427 260.737 181.861 262.669 181.861C264.601 181.861 266.168 183.427 266.168 185.36ZM283.169 151.857C283.169 149.319 282.671 147.155 281.676 145.364C280.681 143.522 279.338 142.129 277.646 141.184C275.954 140.189 274.138 139.691 272.197 139.691C270.256 139.691 268.465 140.164 266.824 141.109C265.182 142.054 263.838 143.448 262.793 145.289C261.798 147.08 261.3 149.219 261.3 151.708C261.3 154.196 261.798 156.385 262.793 158.276C263.838 160.117 265.182 161.535 266.824 162.53C268.515 163.525 270.306 164.023 272.197 164.023C274.138 164.023 275.954 163.55 277.646 162.605C279.338 161.609 280.681 160.216 281.676 158.425C282.671 156.584 283.169 154.394 283.169 151.857ZM310.615 171.412C313.302 172.606 316.337 173.203 319.721 173.203C323.005 173.203 325.866 172.68 328.304 171.635C330.792 170.541 332.683 169.048 333.977 167.157C335.32 165.267 335.992 163.127 335.992 160.738C335.942 158.002 335.196 155.812 333.752 154.17C332.359 152.479 330.693 151.235 328.752 150.439C326.812 149.642 324.348 148.871 321.363 148.125C318.427 147.379 316.263 146.657 314.87 145.961C313.477 145.214 312.78 144.144 312.78 142.751C312.78 141.507 313.277 140.537 314.272 139.84C315.318 139.143 316.785 138.796 318.676 138.796C320.716 138.796 322.334 139.293 323.527 140.288C324.771 141.233 325.468 142.527 325.617 144.169H335.619C335.32 139.989 333.703 136.681 330.767 134.242C327.831 131.755 323.901 130.511 318.975 130.511C315.641 130.511 312.73 131.058 310.242 132.153C307.804 133.247 305.913 134.74 304.569 136.631C303.276 138.522 302.629 140.612 302.629 142.9C302.629 145.687 303.326 147.901 304.719 149.543C306.162 151.185 307.854 152.404 309.794 153.2C311.785 153.996 314.322 154.768 317.407 155.514C320.393 156.31 322.557 157.056 323.901 157.753C325.294 158.4 325.991 159.395 325.991 160.738C325.991 161.982 325.419 163.002 324.274 163.798C323.179 164.595 321.637 164.993 319.647 164.993C317.606 164.993 315.89 164.471 314.497 163.425C313.153 162.381 312.382 161.062 312.183 159.469H301.659C301.808 162.007 302.654 164.321 304.197 166.411C305.789 168.501 307.928 170.168 310.615 171.412Z" fill="#0AB88A"/>
</svg>
